<svg xmlns="http://www.w3.org/2000/svg" viewBox="0 0 512 512" role="img" aria-label="90 Day Power Up">
  <defs>
    <linearGradient id="challengeGradient" x1="0%" y1="0%" x2="100%" y2="100%">
      <stop offset="0%" stop-color="hsl(145, 72%, 50%)" />
      <stop offset="100%" stop-color="hsl(160, 70%, 45%)" />
    </linearGradient>
  </defs>
  <!-- Full-bleed square: rounded rect alone left transparent corners (white halo on launchers). -->
  <rect width="512" height="512" fill="url(#challengeGradient)" />
  <!-- Lucide Zap: stroke-width 2 for 24x24 viewBox (readable at small PNG sizes). -->
  <g transform="translate(256 256) scale(14) translate(-12 -12)" fill="none" stroke="hsl(220, 20%, 7%)" stroke-width="2" stroke-linecap="round" stroke-linejoin="round">
    <path d="M4 14a1 1 0 0 1-.78-1.63l9.9-10.2a.5.5 0 0 1 .86.46l-1.92 6.02A1 1 0 0 0 13 10h7a1 1 0 0 1 .78 1.63l-9.9 10.2a.5.5 0 0 1-.86-.46l1.92-6.02A1 1 0 0 0 11 14z" />
  </g>
</svg>
